<svg xmlns="http://www.w3.org/2000/svg" viewBox="0 0 540 540" width="540" height="540" preserveAspectRatio="xMidYMid meet" style="width: 100%; height: 100%; transform: translate3d(0px, 0px, 0px);"><defs><clipPath id="__lottie_element_435"><rect width="540" height="540" x="0" y="0"></rect></clipPath><clipPath id="__lottie_element_438"><path d="M0,0 L540,0 L540,540 L0,540z"></path></clipPath><linearGradient id="__lottie_element_444" spreadMethod="pad" gradientUnits="userSpaceOnUse" x1="79.87000274658203" y1="-70.89099884033203" x2="-49.444000244140625" y2="35.323001861572266"><stop offset="0%" stop-color="rgb(255,85,117)"></stop><stop offset="21%" stop-color="rgb(255,103,107)"></stop><stop offset="45%" stop-color="rgb(255,121,97)"></stop><stop offset="59%" stop-color="rgb(255,161,109)"></stop><stop offset="75%" stop-color="rgb(255,202,121)"></stop><stop offset="86%" stop-color="rgb(255,161,109)"></stop><stop offset="100%" stop-color="rgb(255,121,97)"></stop></linearGradient><linearGradient id="__lottie_element_448" spreadMethod="pad" gradientUnits="userSpaceOnUse" x1="-40.54399871826172" y1="35.89899826049805" x2="28.368000030517578" y2="-35.34199905395508"><stop offset="0%" stop-color="rgb(31,194,255)"></stop><stop offset="46%" stop-color="rgb(87,139,250)"></stop><stop offset="100%" stop-color="rgb(143,84,245)"></stop></linearGradient><linearGradient id="__lottie_element_452" spreadMethod="pad" gradientUnits="userSpaceOnUse" x1="-54.8650016784668" y1="-68.99199676513672" x2="48.159000396728516" y2="79.9489974975586"><stop offset="0%" stop-color="rgb(219,254,242)" stop-opacity="1"></stop><stop offset="60%" stop-color="rgb(219,254,242)" stop-opacity="0.5"></stop><stop offset="100%" stop-color="rgb(219,254,242)" stop-opacity="0"></stop></linearGradient><linearGradient id="__lottie_element_456" spreadMethod="pad" gradientUnits="userSpaceOnUse" x1="-60.652000427246094" y1="-47.77899932861328" x2="66.44300079345703" y2="41.2140007019043"><stop offset="13%" stop-color="rgb(31,194,255)"></stop><stop offset="37%" stop-color="rgb(125,224,249)"></stop><stop offset="80%" stop-color="rgb(219,254,242)"></stop></linearGradient><radialGradient id="__lottie_element_460" spreadMethod="pad" gradientUnits="userSpaceOnUse" cx="-0.07900000363588333" cy="-0.9269999861717224" r="45.441954942744374" fx="-0.07900000363588333" fy="-0.9269999861717224"><stop offset="0%" stop-color="rgb(255,255,255)" stop-opacity="1"></stop><stop offset="13%" stop-color="rgb(237,254,249)" stop-opacity="1"></stop><stop offset="22%" stop-color="rgb(219,254,242)" stop-opacity="1"></stop><stop offset="58%" stop-color="rgb(219,254,242)" stop-opacity="0.5"></stop><stop offset="100%" stop-color="rgb(219,254,242)" stop-opacity="0"></stop></radialGradient><linearGradient id="__lottie_element_464" spreadMethod="pad" gradientUnits="userSpaceOnUse" x1="-11.602999687194824" y1="7.65500020980835" x2="5.14300012588501" y2="-1.909000039100647"><stop offset="0%" stop-color="rgb(0,151,237)"></stop><stop offset="35%" stop-color="rgb(32,103,160)"></stop><stop offset="100%" stop-color="rgb(63,54,84)"></stop></linearGradient><linearGradient id="__lottie_element_465" spreadMethod="pad" gradientUnits="userSpaceOnUse" x1="-6.795000076293945" y1="2.509000062942505" x2="3.369999885559082" y2="-1.815000057220459"><stop offset="0%" stop-color="rgb(0,151,237)"></stop><stop offset="35%" stop-color="rgb(32,103,160)"></stop><stop offset="100%" stop-color="rgb(63,54,84)"></stop></linearGradient><linearGradient id="__lottie_element_469" spreadMethod="pad" gradientUnits="userSpaceOnUse" x1="-75.68900299072266" y1="-97.84500122070312" x2="94.58599853515625" y2="140.23399353027344"><stop offset="0%" stop-color="rgb(255,202,121)"></stop><stop offset="13%" stop-color="rgb(251,207,185)"></stop><stop offset="25%" stop-color="rgb(247,212,250)"></stop><stop offset="48%" stop-color="rgb(251,207,185)"></stop><stop offset="68%" stop-color="rgb(255,202,121)"></stop><stop offset="86%" stop-color="rgb(255,161,109)"></stop><stop offset="100%" stop-color="rgb(255,121,97)"></stop></linearGradient><linearGradient id="__lottie_element_470" spreadMethod="pad" gradientUnits="userSpaceOnUse" x1="-216.42999267578125" y1="94.75900268554688" x2="167.11000061035156" y2="26.898000717163086"><stop offset="0%" stop-color="rgb(255,85,117)"></stop><stop offset="21%" stop-color="rgb(255,103,107)"></stop><stop offset="45%" stop-color="rgb(255,121,97)"></stop><stop offset="59%" stop-color="rgb(255,161,109)"></stop><stop offset="75%" stop-color="rgb(255,202,121)"></stop><stop offset="86%" stop-color="rgb(255,161,109)"></stop><stop offset="100%" stop-color="rgb(255,121,97)"></stop></linearGradient><linearGradient id="__lottie_element_474" spreadMethod="pad" gradientUnits="userSpaceOnUse" x1="-23.77199935913086" y1="-33.83100128173828" x2="21.46500015258789" y2="29.547000885009766"><stop offset="13%" stop-color="rgb(31,194,255)"></stop><stop offset="37%" stop-color="rgb(125,224,249)"></stop><stop offset="80%" stop-color="rgb(219,254,242)"></stop></linearGradient><linearGradient id="__lottie_element_475" spreadMethod="pad" gradientUnits="userSpaceOnUse" x1="-49.76300048828125" y1="-48.45600128173828" x2="10.395999908447266" y2="27.590999603271484"><stop offset="13%" stop-color="rgb(31,194,255)"></stop><stop offset="37%" stop-color="rgb(125,224,249)"></stop><stop offset="80%" stop-color="rgb(219,254,242)"></stop></linearGradient><linearGradient id="__lottie_element_476" spreadMethod="pad" gradientUnits="userSpaceOnUse" x1="-30.957000732421875" y1="-42.6870002746582" x2="13.595999717712402" y2="29.698999404907227"><stop offset="21%" stop-color="rgb(31,194,255)"></stop><stop offset="57%" stop-color="rgb(125,224,249)"></stop><stop offset="100%" stop-color="rgb(219,254,242)"></stop></linearGradient><linearGradient id="__lottie_element_477" spreadMethod="pad" gradientUnits="userSpaceOnUse" x1="-9.755000114440918" y1="-1.6339999437332153" x2="5.495999813079834" y2="2.489000082015991"><stop offset="21%" stop-color="rgb(31,194,255)"></stop><stop offset="57%" stop-color="rgb(125,224,249)"></stop><stop offset="100%" stop-color="rgb(219,254,242)"></stop></linearGradient><linearGradient id="__lottie_element_478" spreadMethod="pad" gradientUnits="userSpaceOnUse" x1="-49.31999969482422" y1="-49.494998931884766" x2="50.72800064086914" y2="30.496999740600586"><stop offset="13%" stop-color="rgb(31,194,255)"></stop><stop offset="37%" stop-color="rgb(125,224,249)"></stop><stop offset="80%" stop-color="rgb(219,254,242)"></stop></linearGradient><linearGradient id="__lottie_element_479" spreadMethod="pad" gradientUnits="userSpaceOnUse" x1="-79.76100158691406" y1="0.032999999821186066" x2="95.95600128173828" y2="-2.4779999256134033"><stop offset="13%" stop-color="rgb(31,194,255)"></stop><stop offset="37%" stop-color="rgb(125,224,249)"></stop><stop offset="80%" stop-color="rgb(219,254,242)"></stop></linearGradient><linearGradient id="__lottie_element_480" spreadMethod="pad" gradientUnits="userSpaceOnUse" x1="-12.473999977111816" y1="9.48900032043457" x2="0" y2="0"><stop offset="13%" stop-color="rgb(31,194,255)"></stop><stop offset="37%" stop-color="rgb(125,224,249)"></stop><stop offset="80%" stop-color="rgb(219,254,242)"></stop></linearGradient><linearGradient id="__lottie_element_481" spreadMethod="pad" gradientUnits="userSpaceOnUse" x1="-25.92799949645996" y1="-16.500999450683594" x2="24.340999603271484" y2="16.429000854492188"><stop offset="13%" stop-color="rgb(31,194,255)"></stop><stop offset="37%" stop-color="rgb(125,224,249)"></stop><stop offset="80%" stop-color="rgb(219,254,242)"></stop></linearGradient><linearGradient id="__lottie_element_482" spreadMethod="pad" gradientUnits="userSpaceOnUse" x1="-24.666000366210938" y1="-27.89699935913086" x2="31.549999237060547" y2="18.875"><stop offset="13%" stop-color="rgb(31,194,255)"></stop><stop offset="37%" stop-color="rgb(125,224,249)"></stop><stop offset="80%" stop-color="rgb(219,254,242)"></stop></linearGradient><linearGradient id="__lottie_element_483" spreadMethod="pad" gradientUnits="userSpaceOnUse" x1="-43.33300018310547" y1="-32.382999420166016" x2="8.095000267028809" y2="63.99300003051758"><stop offset="13%" stop-color="rgb(31,194,255)"></stop><stop offset="37%" stop-color="rgb(125,224,249)"></stop><stop offset="80%" stop-color="rgb(219,254,242)"></stop></linearGradient><linearGradient id="__lottie_element_487" spreadMethod="pad" gradientUnits="userSpaceOnUse" x1="-2470.616943359375" y1="-307.3760070800781" x2="-2432.739990234375" y2="-522.18798828125"><stop offset="51%" stop-color="rgb(211,240,255)"></stop><stop offset="82%" stop-color="rgb(224,189,250)"></stop><stop offset="100%" stop-color="rgb(238,139,246)"></stop></linearGradient><linearGradient id="__lottie_element_488" spreadMethod="pad" gradientUnits="userSpaceOnUse" x1="-2548.1240234375" y1="-359.62200927734375" x2="-2355.291015625" y2="-470.9540100097656"><stop offset="0%" stop-color="rgb(31,194,255)"></stop><stop offset="46%" stop-color="rgb(87,139,250)"></stop><stop offset="100%" stop-color="rgb(143,84,245)"></stop></linearGradient><linearGradient id="__lottie_element_492" spreadMethod="pad" gradientUnits="userSpaceOnUse" x1="-26.052000045776367" y1="-5.390999794006348" x2="26.822999954223633" y2="8.753000259399414"><stop offset="0%" stop-color="rgb(63,54,84)"></stop><stop offset="65%" stop-color="rgb(32,103,160)"></stop><stop offset="100%" stop-color="rgb(0,151,237)"></stop></linearGradient><linearGradient id="__lottie_element_493" spreadMethod="pad" gradientUnits="userSpaceOnUse" x1="-77.30400085449219" y1="-7.72599983215332" x2="24.79400062561035" y2="-5.824999809265137"><stop offset="65%" stop-color="rgb(63,54,84)"></stop><stop offset="78%" stop-color="rgb(32,103,160)"></stop><stop offset="85%" stop-color="rgb(0,151,237)"></stop></linearGradient><mask id="__lottie_element_436" mask-type="alpha"><g transform="matrix(1,0,0,1,270,270)" opacity="1" style="display: block;"><g opacity="1" transform="matrix(1.1909899711608887,0,0,1.2126799821853638,7.558000087738037,-6.682000160217285)"><path fill="rgb(0,0,0)" fill-opacity="1" d=" M0,-95.02850341796875 C52.446231842041016,-95.02850341796875 95.02850341796875,-52.446231842041016 95.02850341796875,0 C95.02850341796875,52.446231842041016 52.446231842041016,95.02850341796875 0,95.02850341796875 C-52.446231842041016,95.02850341796875 -95.02850341796875,52.446231842041016 -95.02850341796875,0 C-95.02850341796875,-52.446231842041016 -52.446231842041016,-95.02850341796875 0,-95.02850341796875z"></path></g></g></mask><clipPath id="__lottie_element_497"><path d="M0,0 L540,0 L540,540 L0,540z"></path></clipPath><linearGradient id="__lottie_element_503" spreadMethod="pad" gradientUnits="userSpaceOnUse" x1="0" y1="83.89299774169922" x2="0" y2="-84.09200286865234"><stop offset="63%" stop-color="rgb(0,167,255)"></stop><stop offset="77%" stop-color="rgb(119,153,250)"></stop><stop offset="85%" stop-color="rgb(238,139,246)"></stop><stop offset="92%" stop-color="rgb(247,190,227)"></stop><stop offset="100%" stop-color="rgb(255,241,209)"></stop></linearGradient><linearGradient id="__lottie_element_507" spreadMethod="pad" gradientUnits="userSpaceOnUse" x1="9.295999526977539" y1="30.000999450683594" x2="-7.901000022888184" y2="-25.03499984741211"><stop offset="0%" stop-color="rgb(255,241,209)"></stop><stop offset="23%" stop-color="rgb(247,190,227)"></stop><stop offset="42%" stop-color="rgb(238,139,246)"></stop><stop offset="69%" stop-color="rgb(119,153,250)"></stop><stop offset="100%" stop-color="rgb(0,167,255)"></stop></linearGradient><linearGradient id="__lottie_element_508" spreadMethod="pad" gradientUnits="userSpaceOnUse" x1="-15.970000267028809" y1="12.854000091552734" x2="6.541999816894531" y2="-4.802999973297119"><stop offset="0%" stop-color="rgb(255,241,209)"></stop><stop offset="54%" stop-color="rgb(247,190,227)"></stop><stop offset="100%" stop-color="rgb(238,139,246)"></stop></linearGradient><linearGradient id="__lottie_element_509" spreadMethod="pad" gradientUnits="userSpaceOnUse" x1="17.326000213623047" y1="30.996999740600586" x2="-1.9509999752044678" y2="-26.009000778198242"><stop offset="0%" stop-color="rgb(255,241,209)"></stop><stop offset="23%" stop-color="rgb(247,190,227)"></stop><stop offset="42%" stop-color="rgb(238,139,246)"></stop><stop offset="69%" stop-color="rgb(119,153,250)"></stop><stop offset="100%" stop-color="rgb(0,167,255)"></stop></linearGradient><linearGradient id="__lottie_element_510" spreadMethod="pad" gradientUnits="userSpaceOnUse" x1="15.956999778747559" y1="44.95800018310547" x2="-8.411999702453613" y2="-31.117000579833984"><stop offset="0%" stop-color="rgb(255,241,209)"></stop><stop offset="54%" stop-color="rgb(247,190,227)"></stop><stop offset="100%" stop-color="rgb(238,139,246)"></stop></linearGradient><linearGradient id="__lottie_element_511" spreadMethod="pad" gradientUnits="userSpaceOnUse" x1="-6.839000225067139" y1="44.263999938964844" x2="-8.791000366210938" y2="-36.00600051879883"><stop offset="0%" stop-color="rgb(255,241,209)"></stop><stop offset="23%" stop-color="rgb(247,190,227)"></stop><stop offset="42%" stop-color="rgb(238,139,246)"></stop><stop offset="69%" stop-color="rgb(119,153,250)"></stop><stop offset="100%" stop-color="rgb(0,167,255)"></stop></linearGradient><linearGradient id="__lottie_element_512" spreadMethod="pad" gradientUnits="userSpaceOnUse" x1="-26.23699951171875" y1="29.479999542236328" x2="26.888999938964844" y2="-29.73699951171875"><stop offset="0%" stop-color="rgb(255,241,209)"></stop><stop offset="23%" stop-color="rgb(247,190,227)"></stop><stop offset="42%" stop-color="rgb(238,139,246)"></stop><stop offset="69%" stop-color="rgb(119,153,250)"></stop><stop offset="100%" stop-color="rgb(0,167,255)"></stop></linearGradient><linearGradient id="__lottie_element_513" spreadMethod="pad" gradientUnits="userSpaceOnUse" x1="-12.753000259399414" y1="66.0780029296875" x2="-9.876999855041504" y2="-63.76300048828125"><stop offset="0%" stop-color="rgb(255,241,209)"></stop><stop offset="29%" stop-color="rgb(247,190,227)"></stop><stop offset="54%" stop-color="rgb(238,139,246)"></stop><stop offset="79%" stop-color="rgb(119,153,250)"></stop><stop offset="100%" stop-color="rgb(0,167,255)"></stop></linearGradient><linearGradient id="__lottie_element_517" spreadMethod="pad" gradientUnits="userSpaceOnUse" x1="-8.116999626159668" y1="106.69300079345703" x2="-7.455999851226807" y2="-84.69999694824219"><stop offset="41%" stop-color="rgb(0,167,255)"></stop><stop offset="56%" stop-color="rgb(119,153,250)"></stop><stop offset="75%" stop-color="rgb(238,139,246)"></stop><stop offset="87%" stop-color="rgb(247,190,227)"></stop><stop offset="100%" stop-color="rgb(255,241,209)"></stop></linearGradient><linearGradient id="__lottie_element_521" spreadMethod="pad" gradientUnits="userSpaceOnUse" x1="0" y1="-102.06900024414062" x2="0" y2="10.425999641418457"><stop offset="0%" stop-color="rgb(255,241,209)"></stop><stop offset="20%" stop-color="rgb(247,190,227)"></stop><stop offset="37%" stop-color="rgb(238,139,246)"></stop><stop offset="60%" stop-color="rgb(119,153,250)"></stop><stop offset="100%" stop-color="rgb(0,167,255)"></stop></linearGradient><linearGradient id="__lottie_element_525" spreadMethod="pad" gradientUnits="userSpaceOnUse" x1="116.84200286865234" y1="49.84199905395508" x2="-90.02999877929688" y2="-72.55000305175781"><stop offset="0%" stop-color="rgb(143,84,245)"></stop><stop offset="20%" stop-color="rgb(71,125,250)"></stop><stop offset="45%" stop-color="rgb(0,167,255)"></stop><stop offset="58%" stop-color="rgb(123,189,252)"></stop><stop offset="75%" stop-color="rgb(247,212,250)"></stop><stop offset="86%" stop-color="rgb(123,189,252)"></stop><stop offset="100%" stop-color="rgb(0,167,255)"></stop></linearGradient><linearGradient id="__lottie_element_529" spreadMethod="pad" gradientUnits="userSpaceOnUse" x1="-360.7560119628906" y1="-157.72300720214844" x2="3.7939999103546143" y2="64.52400207519531"><stop offset="49%" stop-color="rgb(247,212,250)" stop-opacity="0"></stop><stop offset="59%" stop-color="rgb(247,212,250)" stop-opacity="0.5"></stop><stop offset="68%" stop-color="rgb(247,212,250)" stop-opacity="1"></stop><stop offset="77%" stop-color="rgb(247,212,250)" stop-opacity="0.5"></stop><stop offset="86%" stop-color="rgb(247,212,250)" stop-opacity="0"></stop></linearGradient><linearGradient id="__lottie_element_533" spreadMethod="pad" gradientUnits="userSpaceOnUse" x1="163.31900024414062" y1="136.3159942626953" x2="-90.32499694824219" y2="-58.53799819946289"><stop offset="0%" stop-color="rgb(219,254,242)" stop-opacity="1"></stop><stop offset="20%" stop-color="rgb(219,254,242)" stop-opacity="0.5"></stop><stop offset="47%" stop-color="rgb(219,254,242)" stop-opacity="0"></stop></linearGradient><linearGradient id="__lottie_element_537" spreadMethod="pad" gradientUnits="userSpaceOnUse" x1="0" y1="133.822998046875" x2="0" y2="-116.07099914550781"><stop offset="22%" stop-color="rgb(219,254,242)"></stop><stop offset="50%" stop-color="rgb(194,183,249)"></stop><stop offset="75%" stop-color="rgb(168,112,255)"></stop></linearGradient><linearGradient id="__lottie_element_538" spreadMethod="pad" gradientUnits="userSpaceOnUse" x1="-1741.469970703125" y1="145.57200622558594" x2="-1598.343994140625" y2="-24.999000549316406"><stop offset="0%" stop-color="rgb(31,194,255)"></stop><stop offset="46%" stop-color="rgb(87,139,250)"></stop><stop offset="100%" stop-color="rgb(143,84,245)"></stop></linearGradient><linearGradient id="__lottie_element_542" spreadMethod="pad" gradientUnits="userSpaceOnUse" x1="-222.68800354003906" y1="44.683998107910156" x2="-92.48300170898438" y2="2.131999969482422"><stop offset="15%" stop-color="rgb(251,235,252)" stop-opacity="1"></stop><stop offset="33%" stop-color="rgb(249,223,251)" stop-opacity="0.5"></stop><stop offset="55%" stop-color="rgb(247,212,250)" stop-opacity="0"></stop></linearGradient><linearGradient id="__lottie_element_546" spreadMethod="pad" gradientUnits="userSpaceOnUse" x1="-1682.637939453125" y1="243.40699768066406" x2="-1682.637939453125" y2="-14.10200023651123"><stop offset="0%" stop-color="rgb(0,167,255)"></stop><stop offset="14%" stop-color="rgb(60,190,255)"></stop><stop offset="32%" stop-color="rgb(120,213,255)"></stop><stop offset="52%" stop-color="rgb(175,212,255)"></stop><stop offset="75%" stop-color="rgb(230,212,255)"></stop><stop offset="87%" stop-color="rgb(175,212,255)"></stop><stop offset="100%" stop-color="rgb(120,213,255)"></stop></linearGradient><linearGradient id="__lottie_element_547" spreadMethod="pad" gradientUnits="userSpaceOnUse" x1="-1683.156982421875" y1="245.58200073242188" x2="-1683.156982421875" y2="-16.47100067138672"><stop offset="0%" stop-color="rgb(143,84,245)"></stop><stop offset="10%" stop-color="rgb(71,118,241)"></stop><stop offset="22%" stop-color="rgb(0,151,237)"></stop><stop offset="32%" stop-color="rgb(16,172,246)"></stop><stop offset="44%" stop-color="rgb(31,194,255)"></stop><stop offset="58%" stop-color="rgb(139,203,252)"></stop><stop offset="75%" stop-color="rgb(247,212,250)"></stop><stop offset="81%" stop-color="rgb(139,203,252)"></stop><stop offset="88%" stop-color="rgb(31,194,255)"></stop></linearGradient><linearGradient id="__lottie_element_551" spreadMethod="pad" gradientUnits="userSpaceOnUse" x1="-39.72200012207031" y1="9.642999649047852" x2="49.53300094604492" y2="-1.7829999923706055"><stop offset="0%" stop-color="rgb(63,54,84)"></stop><stop offset="65%" stop-color="rgb(32,103,160)"></stop><stop offset="100%" stop-color="rgb(0,151,237)"></stop></linearGradient><linearGradient id="__lottie_element_552" spreadMethod="pad" gradientUnits="userSpaceOnUse" x1="-121.9010009765625" y1="34.224998474121094" x2="33.54199981689453" y2="-4.714000225067139"><stop offset="65%" stop-color="rgb(63,54,84)"></stop><stop offset="78%" stop-color="rgb(32,103,160)"></stop><stop offset="85%" stop-color="rgb(0,151,237)"></stop></linearGradient><radialGradient id="__lottie_element_556" spreadMethod="pad" gradientUnits="userSpaceOnUse" cx="0.6510000228881836" cy="0.10499999672174454" r="12.063011704110256" fx="0.6510000228881836" fy="0.10499999672174454"><stop offset="16%" stop-color="rgb(143,84,245)" stop-opacity="1"></stop><stop offset="26%" stop-color="rgb(87,139,250)" stop-opacity="1"></stop><stop offset="39%" stop-color="rgb(31,194,255)" stop-opacity="1"></stop><stop offset="58%" stop-color="rgb(92,222,232)" stop-opacity="0.5"></stop><stop offset="100%" stop-color="rgb(152,250,209)" stop-opacity="0"></stop></radialGradient><radialGradient id="__lottie_element_560" spreadMethod="pad" gradientUnits="userSpaceOnUse" cx="0.6510000228881836" cy="0.10499999672174454" r="12.063011704110256" fx="0.6510000228881836" fy="0.10499999672174454"><stop offset="16%" stop-color="rgb(143,84,245)" stop-opacity="1"></stop><stop offset="26%" stop-color="rgb(87,139,250)" stop-opacity="1"></stop><stop offset="39%" stop-color="rgb(31,194,255)" stop-opacity="1"></stop><stop offset="58%" stop-color="rgb(92,222,232)" stop-opacity="0.5"></stop><stop offset="100%" stop-color="rgb(152,250,209)" stop-opacity="0"></stop></radialGradient></defs><g clip-path="url(#__lottie_element_435)"><g transform="matrix(1.3677300214767456,0,0,1,255.29299926757812,608.9810180664062)" opacity="1" style="display: block;"><g opacity="1" transform="matrix(0,1,-13.285090446472168,0,4.3429999351501465,-130.07200622558594)"><path fill="url(#__lottie_element_560)" fill-opacity="1" d=" M192.4929962158203,0 C192.4929962158203,6.828000068664551 106.31099700927734,12.36400032043457 0,12.36400032043457 C-106.31099700927734,12.36400032043457 -192.4929962158203,6.828000068664551 -192.4929962158203,0 C-192.4929962158203,-6.828000068664551 -106.31099700927734,-12.36400032043457 0,-12.36400032043457 C106.31099700927734,-12.36400032043457 192.4929962158203,-6.828000068664551 192.4929962158203,0z"></path></g></g><g transform="matrix(0.761389970779419,0,0,0.5566800236701965,424.2929992675781,551.9810180664062)" opacity="0.7000000000000001" style="display: block;"><g opacity="1" transform="matrix(0,1,-13.285090446472168,0,4.3429999351501465,-130.07200622558594)"><path fill="url(#__lottie_element_556)" fill-opacity="1" d=" M192.4929962158203,0 C192.4929962158203,6.828000068664551 106.31099700927734,12.36400032043457 0,12.36400032043457 C-106.31099700927734,12.36400032043457 -192.4929962158203,6.828000068664551 -192.4929962158203,0 C-192.4929962158203,-6.828000068664551 -106.31099700927734,-12.36400032043457 0,-12.36400032043457 C106.31099700927734,-12.36400032043457 192.4929962158203,-6.828000068664551 192.4929962158203,0z"></path></g></g><g transform="matrix(1,0,0,1,419.9110107421875,410.4309997558594)" opacity="1" style="display: block;"><g opacity="1" transform="matrix(1,0,0,1,0,0)"><path fill="url(#__lottie_element_551)" fill-opacity="1" d=" M-9.619999885559082,-34.619998931884766 C-9.619999885559082,-34.619998931884766 22.659000396728516,-7.534999847412109 22.659000396728516,-7.534999847412109 C28.60099983215332,-2.5490000247955322 29.375999450683594,6.310999870300293 24.389999389648438,12.253000259399414 C24.389999389648438,12.253000259399414 8.991999626159668,30.604000091552734 8.991999626159668,30.604000091552734 C3.622999906539917,37.00299835205078 -6.604000091552734,35.513999938964844 -9.925999641418457,27.850000381469727 C-9.925999641418457,27.850000381469727 -27.677000045776367,-13.10099983215332 -27.677000045776367,-13.10099983215332 C-27.677000045776367,-13.10099983215332 -9.619999885559082,-34.619998931884766 -9.619999885559082,-34.619998931884766z"></path><path stroke="url(#__lottie_element_552)" stroke-linecap="butt" stroke-linejoin="miter" fill-opacity="0" stroke-miterlimit="10" stroke-opacity="1" stroke-width="4.544" d=" M-9.619999885559082,-34.619998931884766 C-9.619999885559082,-34.619998931884766 22.659000396728516,-7.534999847412109 22.659000396728516,-7.534999847412109 C28.60099983215332,-2.5490000247955322 29.375999450683594,6.310999870300293 24.389999389648438,12.253000259399414 C24.389999389648438,12.253000259399414 8.991999626159668,30.604000091552734 8.991999626159668,30.604000091552734 C3.622999906539917,37.00299835205078 -6.604000091552734,35.513999938964844 -9.925999641418457,27.850000381469727 C-9.925999641418457,27.850000381469727 -27.677000045776367,-13.10099983215332 -27.677000045776367,-13.10099983215332 C-27.677000045776367,-13.10099983215332 -9.619999885559082,-34.619998931884766 -9.619999885559082,-34.619998931884766z"></path></g></g><g transform="matrix(1,0,0,1,270,270)" opacity="1" style="display: block;"><g opacity="1" transform="matrix(1,0,0,1,0,0)"><path fill="url(#__lottie_element_546)" fill-opacity="1" d=" M140.29100036621094,105.80999755859375 C140.29100036621094,105.80999755859375 102.18599700927734,73.83699798583984 102.18599700927734,73.83699798583984 C93.56600189208984,66.60399627685547 88.18299865722656,56.23500061035156 87.28099822998047,45.018001556396484 C85.56500244140625,23.68000030517578 77.13200378417969,-14.416000366210938 41.23099899291992,-44.540000915527344 C-13.708000183105469,-90.63899993896484 -95.84700012207031,-83.01499938964844 -141.32699584960938,-27.256000518798828 C-185.9969940185547,27.510000228881836 -177.7469940185547,108.97000122070312 -123.06099700927734,153.73699951171875 C-68.54000091552734,198.36900329589844 11.92199993133545,190.89599609375 57.25899887084961,136.66099548339844 C67.35900115966797,124.5790023803711 83.59100341796875,119.4990005493164 98.90799713134766,123.15699768066406 C98.90799713134766,123.15699768066406 123.46600341796875,129.0229949951172 123.46600341796875,129.0229949951172 C127.26000213623047,129.9290008544922 131.24099731445312,128.61399841308594 133.74899291992188,125.6259994506836 C133.74899291992188,125.6259994506836 141.2429962158203,116.69400024414062 141.2429962158203,116.69400024414062 C143.98500061035156,113.4260025024414 143.5590057373047,108.552001953125 140.29100036621094,105.80999755859375z M-114.552001953125,141.11500549316406 C-162.61500549316406,100.78500366210938 -168.88400268554688,29.128999710083008 -128.5540008544922,-18.93400001525879 C-88.2239990234375,-66.99700164794922 -16.56800079345703,-73.26599884033203 31.4950008392334,-32.93600082397461 C79.55799865722656,7.394000053405762 85.8280029296875,79.05000305175781 45.49800109863281,127.11299896240234 C5.168000221252441,175.17599487304688 -66.48899841308594,181.44500732421875 -114.552001953125,141.11500549316406z"></path><path stroke="url(#__lottie_element_547)" stroke-linecap="round" stroke-linejoin="round" fill-opacity="0" stroke-opacity="1" stroke-width="4.544" d=" M140.29100036621094,105.80999755859375 C140.29100036621094,105.80999755859375 102.18599700927734,73.83699798583984 102.18599700927734,73.83699798583984 C93.56600189208984,66.60399627685547 88.18299865722656,56.23500061035156 87.28099822998047,45.018001556396484 C85.56500244140625,23.68000030517578 77.13200378417969,-14.416000366210938 41.23099899291992,-44.540000915527344 C-13.708000183105469,-90.63899993896484 -95.84700012207031,-83.01499938964844 -141.32699584960938,-27.256000518798828 C-185.9969940185547,27.510000228881836 -177.7469940185547,108.97000122070312 -123.06099700927734,153.73699951171875 C-68.54000091552734,198.36900329589844 11.92199993133545,190.89599609375 57.25899887084961,136.66099548339844 C67.35900115966797,124.5790023803711 83.59100341796875,119.4990005493164 98.90799713134766,123.15699768066406 C98.90799713134766,123.15699768066406 123.46600341796875,129.0229949951172 123.46600341796875,129.0229949951172 C127.26000213623047,129.9290008544922 131.24099731445312,128.61399841308594 133.74899291992188,125.6259994506836 C133.74899291992188,125.6259994506836 141.2429962158203,116.69400024414062 141.2429962158203,116.69400024414062 C143.98500061035156,113.4260025024414 143.5590057373047,108.552001953125 140.29100036621094,105.80999755859375z M-114.552001953125,141.11500549316406 C-162.61500549316406,100.78500366210938 -168.88400268554688,29.128999710083008 -128.5540008544922,-18.93400001525879 C-88.2239990234375,-66.99700164794922 -16.56800079345703,-73.26599884033203 31.4950008392334,-32.93600082397461 C79.55799865722656,7.394000053405762 85.8280029296875,79.05000305175781 45.49800109863281,127.11299896240234 C5.168000221252441,175.17599487304688 -66.48899841308594,181.44500732421875 -114.552001953125,141.11500549316406z"></path></g></g><g transform="matrix(1,0,0,1,270,270)" opacity="1" style="display: block;"><g opacity="1" transform="matrix(1,0,0,1,0,0)"><path stroke="url(#__lottie_element_542)" stroke-linecap="round" stroke-linejoin="round" fill-opacity="0" stroke-opacity="1" stroke-width="4.544" d=" M-137.80499267578125,-24.385000228881836 C-116.61199951171875,-50.36899948120117 -86.572998046875,-66.41500091552734 -53.220001220703125,-69.56600189208984 C-19.861000061035156,-72.72000122070312 12.645000457763672,-62.59400177001953 38.310001373291016,-41.058998107910156 C73.28800201416016,-11.708999633789062 81.16699981689453,25.697999954223633 82.75199890136719,45.38399887084961 C83.74199676513672,57.70399856567383 89.76100158691406,69.34200286865234 99.26599884033203,77.31800079345703 C99.26599884033203,77.31800079345703 137.3699951171875,109.29199981689453 137.3699951171875,109.29199981689453 C138.71400451660156,110.41999816894531 138.89100646972656,112.42900085449219 137.76300048828125,113.77300262451172 C137.76300048828125,113.77300262451172 130.26800537109375,122.70600128173828 130.26800537109375,122.70600128173828 C128.85800170898438,124.38600158691406 126.65699768066406,125.11399841308594 124.52400207519531,124.60399627685547 C124.52400207519531,124.60399627685547 99.96399688720703,118.73699951171875 99.96399688720703,118.73699951171875 C82.927001953125,114.66799926757812 64.7959976196289,120.55899810791016 53.77299880981445,133.74600219726562 M-132.03599548339844,-21.854999542236328 C-173.91200256347656,28.051000595092773 -167.37899780273438,102.72100067138672 -117.4729995727539,144.5970001220703 C-67.56700134277344,186.47300720214844 7.1020002365112305,179.94000244140625 48.97800064086914,130.03399658203125"></path></g></g><g transform="matrix(1,0,0,1,228.4709930419922,324.0899963378906)" opacity="1" style="display: block;"><g opacity="1" transform="matrix(1,0,0,1,0,0)"><path fill="url(#__lottie_element_537)" fill-opacity="1" d=" M70.10299682617188,-83.54499816894531 C23.961999893188477,-122.26200103759766 -44.827999114990234,-116.24400329589844 -83.54499816894531,-70.10299682617188 C-122.26200103759766,-23.961999893188477 -116.24400329589844,44.827999114990234 -70.10299682617188,83.54499816894531 C-23.961999893188477,122.26200103759766 44.827999114990234,116.24400329589844 83.54499816894531,70.10299682617188 C122.26200103759766,23.961999893188477 116.24400329589844,-44.827999114990234 70.10299682617188,-83.54499816894531z"></path><path stroke="url(#__lottie_element_538)" stroke-linecap="butt" stroke-linejoin="miter" fill-opacity="0" stroke-miterlimit="10" stroke-opacity="1" stroke-width="4.544" d=" M70.10299682617188,-83.54499816894531 C23.961999893188477,-122.26200103759766 -44.827999114990234,-116.24400329589844 -83.54499816894531,-70.10299682617188 C-122.26200103759766,-23.961999893188477 -116.24400329589844,44.827999114990234 -70.10299682617188,83.54499816894531 C-23.961999893188477,122.26200103759766 44.827999114990234,116.24400329589844 83.54499816894531,70.10299682617188 C122.26200103759766,23.961999893188477 116.24400329589844,-44.827999114990234 70.10299682617188,-83.54499816894531z"></path></g></g><g transform="matrix(1,0,0,1,228.4980010986328,324.0899963378906)" opacity="1" style="display: block;"><g opacity="1" transform="matrix(1,0,0,1,0,0)"><path stroke="url(#__lottie_element_533)" stroke-linecap="butt" stroke-linejoin="miter" fill-opacity="0" stroke-miterlimit="10" stroke-opacity="1" stroke-width="4.544" d=" M-0.08299999684095383,104.51899719238281 C-24.57699966430664,104.51799774169922 -48.415000915527344,95.83300018310547 -67.20700073242188,80.06400299072266 C-111.35600280761719,43.02000045776367 -117.13500213623047,-23.03499984741211 -80.09100341796875,-67.18199920654297 C-60.17900085449219,-90.91000366210938 -30.976999282836914,-104.51899719238281 0.028999999165534973,-104.51899719238281 C24.52199935913086,-104.51899719238281 48.36000061035156,-95.83399963378906 67.15399932861328,-80.06400299072266 C88.54100036621094,-62.119998931884766 101.65799713134766,-36.92100143432617 104.09100341796875,-9.109000205993652 C106.52400207519531,18.70199966430664 97.98200225830078,45.79499816894531 80.03800201416016,67.18000030517578 C60.12799835205078,90.91000366210938 30.926000595092773,104.51899719238281 -0.07699999958276749,104.51899719238281 C-0.07999999821186066,104.51899719238281 -0.0820000022649765,104.51899719238281 -0.08299999684095383,104.51899719238281z"></path></g></g><g transform="matrix(1,0,0,1,362.1409912109375,306.0769958496094)" opacity="1" style="display: block;"><g opacity="1" transform="matrix(1,0,0,1,0,0)"><path stroke="url(#__lottie_element_529)" stroke-linecap="round" stroke-linejoin="round" fill-opacity="0" stroke-opacity="1" stroke-width="4.544" d=" M49.10200119018555,80.61699676513672 C51.84400177001953,77.3489990234375 51.417999267578125,72.4749984741211 48.150001525878906,69.73300170898438 C48.150001525878906,69.73300170898438 10.045000076293945,37.7599983215332 10.045000076293945,37.7599983215332 C1.4249999523162842,30.527000427246094 -3.9590001106262207,20.158000946044922 -4.861000061035156,8.940999984741211 C-6.577000141143799,-12.397000312805176 -15.008999824523926,-50.49300003051758 -50.90999984741211,-80.61699676513672"></path></g></g><g transform="matrix(1,0,0,1,228.4720001220703,324.0889892578125)" opacity="1" style="display: block;"><g opacity="1" transform="matrix(1,0,0,1,0,0)"><path stroke="url(#__lottie_element_525)" stroke-linecap="round" stroke-linejoin="round" fill-opacity="0" stroke-opacity="0" stroke-width="4.544" d=" M73.02300262451172,-87.0260009765625 C121.08599853515625,-46.69599914550781 127.35600280761719,24.961000442504883 87.0260009765625,73.02400207519531 C46.69599914550781,121.08699798583984 -24.961000442504883,127.35600280761719 -73.02400207519531,87.0260009765625 C-121.08699798583984,46.69599914550781 -127.35600280761719,-24.959999084472656 -87.0260009765625,-73.02300262451172 C-46.69599914550781,-121.08599853515625 24.959999084472656,-127.35600280761719 73.02300262451172,-87.0260009765625z"></path></g></g><g clip-path="url(#__lottie_element_438)" transform="matrix(1,0,0,1,0,0)" opacity="1" style="display: block;"><g transform="matrix(1,0,0,1,429.9809875488281,410.4460144042969)" opacity="1" style="display: block;"><g opacity="1" transform="matrix(1,0,0,1,0,0)"><path fill="url(#__lottie_element_492)" fill-opacity="1" d=" M0.6880000233650208,-34.5880012512207 C0.6880000233650208,-34.5880012512207 21.756000518798828,1.9040000438690186 21.756000518798828,1.9040000438690186 C25.635000228881836,8.621999740600586 23.33300018310547,17.211999893188477 16.614999771118164,21.090999603271484 C16.614999771118164,21.090999603271484 -4.13100004196167,33.069000244140625 -4.13100004196167,33.069000244140625 C-11.364999771118164,37.24599838256836 -20.465999603271484,32.3489990234375 -20.965999603271484,24.01099967956543 C-20.965999603271484,24.01099967956543 -23.639999389648438,-20.54199981689453 -23.639999389648438,-20.54199981689453 C-23.639999389648438,-20.54199981689453 0.6880000233650208,-34.5880012512207 0.6880000233650208,-34.5880012512207z"></path><path stroke="url(#__lottie_element_493)" stroke-linecap="butt" stroke-linejoin="miter" fill-opacity="0" stroke-miterlimit="10" stroke-opacity="1" stroke-width="4.544" d=" M0.6880000233650208,-34.5880012512207 C0.6880000233650208,-34.5880012512207 21.756000518798828,1.9040000438690186 21.756000518798828,1.9040000438690186 C25.635000228881836,8.621999740600586 23.33300018310547,17.211999893188477 16.614999771118164,21.090999603271484 C16.614999771118164,21.090999603271484 -4.13100004196167,33.069000244140625 -4.13100004196167,33.069000244140625 C-11.364999771118164,37.24599838256836 -20.465999603271484,32.3489990234375 -20.965999603271484,24.01099967956543 C-20.965999603271484,24.01099967956543 -23.639999389648438,-20.54199981689453 -23.639999389648438,-20.54199981689453 C-23.639999389648438,-20.54199981689453 0.6880000233650208,-34.5880012512207 0.6880000233650208,-34.5880012512207z"></path></g></g><g transform="matrix(1,0,0,1,277,265)" opacity="1" style="display: block;"><g opacity="1" transform="matrix(1,0,0,1,0,0)"><path fill="url(#__lottie_element_487)" fill-opacity="1" d=" M94.4489974975586,-54.529998779296875 C64.33300018310547,-106.69300079345703 -2.367000102996826,-124.56500244140625 -54.529998779296875,-94.4489974975586 C-106.69300079345703,-64.33300018310547 -124.56500244140625,2.367000102996826 -94.4489974975586,54.529998779296875 C-64.33300018310547,106.69300079345703 2.367000102996826,124.56500244140625 54.529998779296875,94.4489974975586 C106.69300079345703,64.33300018310547 124.56500244140625,-2.367000102996826 94.4489974975586,-54.529998779296875z"></path><path stroke="url(#__lottie_element_488)" stroke-linecap="butt" stroke-linejoin="miter" fill-opacity="0" stroke-miterlimit="10" stroke-opacity="1" stroke-width="4.544" d=" M94.4489974975586,-54.529998779296875 C64.33300018310547,-106.69300079345703 -2.367000102996826,-124.56500244140625 -54.529998779296875,-94.4489974975586 C-106.69300079345703,-64.33300018310547 -124.56500244140625,2.367000102996826 -94.4489974975586,54.529998779296875 C-64.33300018310547,106.69300079345703 2.367000102996826,124.56500244140625 54.529998779296875,94.4489974975586 C106.69300079345703,64.33300018310547 124.56500244140625,-2.367000102996826 94.4489974975586,-54.529998779296875z"></path></g></g><g transform="matrix(1,0,0,1,2.506988525390625,-0.069000244140625)" opacity="1" style="display: block;"><g opacity="1" transform="matrix(1,0,0,1,251.46200561523438,188.16299438476562)"><path fill="url(#__lottie_element_474)" fill-opacity="1" d=" M33.93299865722656,32.15599822998047 C33.93299865722656,32.15599822998047 44.97700119018555,-30.479999542236328 44.97700119018555,-30.479999542236328 C20.599000930786133,-34.79199981689453 -5.369999885559082,-30.88800048828125 -28.488000869750977,-17.541000366210938 C-34.446998596191406,-14.10099983215332 -39.933998107910156,-10.163999557495117 -44.97700119018555,-5.84499979019165 C-44.97700119018555,-5.84499979019165 -25.736000061035156,21.635000228881836 -25.736000061035156,21.635000228881836 C-25.736000061035156,21.635000228881836 33.93299865722656,32.15599822998047 33.93299865722656,32.15599822998047z"></path></g><g opacity="1" transform="matrix(1,0,0,1,324.885009765625,258.927001953125)"><path fill="url(#__lottie_element_475)" fill-opacity="1" d=" M-50.012001037597656,21.06100082397461 C-50.012001037597656,21.06100082397461 -37.724998474121094,38.608001708984375 -37.724998474121094,38.608001708984375 C-37.724998474121094,38.608001708984375 50.012001037597656,-22.826000213623047 50.012001037597656,-22.826000213623047 C50.012001037597656,-22.826000213623047 -39.49100112915039,-38.608001708984375 -39.49100112915039,-38.608001708984375 C-39.49100112915039,-38.608001708984375 -50.012001037597656,21.06100082397461 -50.012001037597656,21.06100082397461z"></path></g><g opacity="1" transform="matrix(1,0,0,1,333.35101318359375,196.89199829101562)"><path fill="url(#__lottie_element_476)" fill-opacity="1" d=" M41.54600143432617,39.20899963378906 C41.54600143432617,39.20899963378906 47.957000732421875,34.720001220703125 47.957000732421875,34.720001220703125 C45.630001068115234,27.524999618530273 42.534000396728516,20.461999893188477 38.60100173950195,13.64900016784668 C21.832000732421875,-15.395999908447266 -6.2829999923706055,-33.79199981689453 -36.9119987487793,-39.20899963378906 C-36.9119987487793,-39.20899963378906 -47.957000732421875,23.427000045776367 -47.957000732421875,23.427000045776367 C-47.957000732421875,23.427000045776367 41.54600143432617,39.20899963378906 41.54600143432617,39.20899963378906z"></path></g><g opacity="1" transform="matrix(1,0,0,1,278.3869934082031,294.9049987792969)"><path fill="url(#__lottie_element_477)" fill-opacity="1" d=" M-8.77400016784668,14.916999816894531 C-8.77400016784668,14.916999816894531 8.77400016784668,2.630000114440918 8.77400016784668,2.630000114440918 C8.77400016784668,2.630000114440918 -3.513000011444092,-14.916999816894531 -3.513000011444092,-14.916999816894531 C-3.513000011444092,-14.916999816894531 -8.77400016784668,14.916999816894531 -8.77400016784668,14.916999816894531z"></path></g><g opacity="1" transform="matrix(1,0,0,1,255.55999755859375,244.89300537109375)"><path fill="url(#__lottie_element_478)" fill-opacity="1" d=" M-29.833999633789062,-35.095001220703125 C-29.833999633789062,-35.095001220703125 19.312999725341797,35.095001220703125 19.312999725341797,35.095001220703125 C19.312999725341797,35.095001220703125 29.833999633789062,-24.573999404907227 29.833999633789062,-24.573999404907227 C29.833999633789062,-24.573999404907227 -29.833999633789062,-35.095001220703125 -29.833999633789062,-35.095001220703125z"></path></g><g opacity="1" transform="matrix(1,0,0,1,336.8580017089844,298.1000061035156)"><path fill="url(#__lottie_element_479)" fill-opacity="1" d=" M-49.698001861572266,-0.5649999976158142 C-49.698001861572266,-0.5649999976158142 -5.889999866485596,61.999000549316406 -5.889999866485596,61.999000549316406 C-5.535999774932861,61.79999923706055 -5.176000118255615,61.62200164794922 -4.823999881744385,61.41899871826172 C38.665000915527344,36.31100082397461 58.290000915527344,-14.222999572753906 46.17100143432617,-60.564998626708984 C46.17100143432617,-60.564998626708984 38.03900146484375,-61.999000549316406 38.03900146484375,-61.999000549316406 C38.03900146484375,-61.999000549316406 -49.698001861572266,-0.5649999976158142 -49.698001861572266,-0.5649999976158142z"></path></g><g opacity="1" transform="matrix(1,0,0,1,378.9630126953125,234.572998046875)"><path fill="url(#__lottie_element_480)" fill-opacity="1" d=" M-4.065999984741211,1.5269999504089355 C-4.065999984741211,1.5269999504089355 4.065999984741211,2.9609999656677246 4.065999984741211,2.9609999656677246 C3.546999931335449,0.9789999723434448 2.9800000190734863,-0.9959999918937683 2.3450000286102295,-2.9609999656677246 C2.3450000286102295,-2.9609999656677246 -4.065999984741211,1.5269999504089355 -4.065999984741211,1.5269999504089355z"></path></g><g opacity="1" transform="matrix(1,0,0,1,207.23599243164062,196.05799865722656)"><path fill="url(#__lottie_element_481)" fill-opacity="1" d=" M-0.25099998712539673,-13.739999771118164 C-7.4730000495910645,-7.556000232696533 -13.748000144958496,-0.5630000233650208 -18.990999221801758,7.043000221252441 C-18.990999221801758,7.043000221252441 18.990999221801758,13.739999771118164 18.990999221801758,13.739999771118164 C18.990999221801758,13.739999771118164 -0.25099998712539673,-13.739999771118164 -0.25099998712539673,-13.739999771118164z"></path></g><g opacity="1" transform="matrix(1,0,0,1,294.76800537109375,335.8320007324219)"><path fill="url(#__lottie_element_482)" fill-opacity="1" d=" M-25.1560001373291,-26.01099967956543 C-25.1560001373291,-26.01099967956543 -36.20000076293945,36.625999450683594 -36.20000076293945,36.625999450683594 C-12.192999839782715,40.87200164794922 13.350000381469727,37.12799835205078 36.20000076293945,24.267000198364258 C36.20000076293945,24.267000198364258 -7.607999801635742,-38.297000885009766 -7.607999801635742,-38.297000885009766 C-7.607999801635742,-38.297000885009766 -25.1560001373291,-26.01099967956543 -25.1560001373291,-26.01099967956543z"></path></g><g opacity="1" transform="matrix(1,0,0,1,224.15199279785156,287.77899169921875)"><path fill="url(#__lottie_element_483)" fill-opacity="0" d=" M1.5670000314712524,-77.91300201416016 C1.5670000314712524,-77.91300201416016 -36.41400146484375,-84.61000061035156 -36.41400146484375,-84.61000061035156 C-59.56399917602539,-51.029998779296875 -62.854000091552734,-5.7820000648498535 -41.104000091552734,31.889999389648438 C-24.334999084472656,60.935001373291016 3.7809998989105225,79.33000183105469 34.40999984741211,84.74700164794922 C34.40999984741211,84.74700164794922 45.45399856567383,22.111000061035156 45.45399856567383,22.111000061035156 C45.45399856567383,22.111000061035156 50.71500015258789,-7.7230000495910645 50.71500015258789,-7.7230000495910645 C50.71500015258789,-7.7230000495910645 1.5670000314712524,-77.91300201416016 1.5670000314712524,-77.91300201416016z"></path></g></g><g transform="matrix(1,0,0,1,-0.2919921875,-0.071014404296875)" opacity="1" style="display: block;"><g opacity="1" transform="matrix(1,0,0,1,290.2919921875,265.0710144042969)"><path fill="url(#__lottie_element_469)" fill-opacity="1" d=" M140.37600708007812,110.78700256347656 C140.37600708007812,110.78700256347656 115.50499725341797,67.70899963378906 115.50499725341797,67.70899963378906 C109.87799835205078,57.9630012512207 108.36599731445312,46.380001068115234 111.3550033569336,35.53099822998047 C117.04100036621094,14.892999649047852 122.14600372314453,-23.790000915527344 98.71299743652344,-64.3759994506836 C62.854000091552734,-126.48600006103516 -16.93899917602539,-147.41600036621094 -78.74700164794922,-110.5739974975586 C-139.45399475097656,-74.38899993896484 -159.56199645996094,4.980999946594238 -123.48500061035156,65.75199890136719 C-87.51699829101562,126.33999633789062 -9.35200023651123,146.83799743652344 51.79999923706055,111.37899780273438 C65.4229965209961,103.4800033569336 82.41400146484375,104.25700378417969 95.55599975585938,112.93299865722656 C95.55599975585938,112.93299865722656 116.62699890136719,126.84600067138672 116.62699890136719,126.84600067138672 C119.88300323486328,128.9949951171875 124.072998046875,129.12100219726562 127.45099639892578,127.16999816894531 C127.45099639892578,127.16999816894531 137.5489959716797,121.33999633789062 137.5489959716797,121.33999633789062 C141.24400329589844,119.20700073242188 142.50900268554688,114.48200225830078 140.37600708007812,110.78700256347656z M-111.1729965209961,56.801998138427734 C-142.54400634765625,2.4660000801086426 -123.927001953125,-67.01399993896484 -69.59100341796875,-98.38500213623047 C-15.255000114440918,-129.75599670410156 54.224998474121094,-111.13800048828125 85.59600067138672,-56.801998138427734 C116.96700286865234,-2.4660000801086426 98.3499984741211,67.01300048828125 44.013999938964844,98.38400268554688 C-10.321999549865723,129.7550048828125 -79.802001953125,111.13800048828125 -111.1729965209961,56.801998138427734z"></path><path stroke="url(#__lottie_element_470)" stroke-linecap="round" stroke-linejoin="round" fill-opacity="0" stroke-opacity="1" stroke-width="4.544" d=" M140.37600708007812,110.78700256347656 C140.37600708007812,110.78700256347656 115.50499725341797,67.70899963378906 115.50499725341797,67.70899963378906 C109.87799835205078,57.9630012512207 108.36599731445312,46.380001068115234 111.3550033569336,35.53099822998047 C117.04100036621094,14.892999649047852 122.14600372314453,-23.790000915527344 98.71299743652344,-64.3759994506836 C62.854000091552734,-126.48600006103516 -16.93899917602539,-147.41600036621094 -78.74700164794922,-110.5739974975586 C-139.45399475097656,-74.38899993896484 -159.56199645996094,4.980999946594238 -123.48500061035156,65.75199890136719 C-87.51699829101562,126.33999633789062 -9.35200023651123,146.83799743652344 51.79999923706055,111.37899780273438 C65.4229965209961,103.4800033569336 82.41400146484375,104.25700378417969 95.55599975585938,112.93299865722656 C95.55599975585938,112.93299865722656 116.62699890136719,126.84600067138672 116.62699890136719,126.84600067138672 C119.88300323486328,128.9949951171875 124.072998046875,129.12100219726562 127.45099639892578,127.16999816894531 C127.45099639892578,127.16999816894531 137.5489959716797,121.33999633789062 137.5489959716797,121.33999633789062 C141.24400329589844,119.20700073242188 142.50900268554688,114.48200225830078 140.37600708007812,110.78700256347656z M-111.1729965209961,56.801998138427734 C-142.54400634765625,2.4660000801086426 -123.927001953125,-67.01399993896484 -69.59100341796875,-98.38500213623047 C-15.255000114440918,-129.75599670410156 54.224998474121094,-111.13800048828125 85.59600067138672,-56.801998138427734 C116.96700286865234,-2.4660000801086426 98.3499984741211,67.01300048828125 44.013999938964844,98.38400268554688 C-10.321999549865723,129.7550048828125 -79.802001953125,111.13800048828125 -111.1729965209961,56.801998138427734z"></path></g></g><g transform="matrix(1,0,0,1,412,374)" opacity="1" style="display: block;"><g opacity="1" transform="matrix(1,0,0,1,0,0)"><path fill="url(#__lottie_element_464)" fill-opacity="1" d=" M2.1070001125335693,3.6489999294281006 C0.09200000017881393,4.813000202178955 -2.484999895095825,4.122000217437744 -3.6489999294281006,2.1070001125335693 C-4.813000202178955,0.09200000017881393 -4.122000217437744,-2.484999895095825 -2.1070001125335693,-3.6489999294281006 C-0.09200000017881393,-4.813000202178955 2.484999895095825,-4.122000217437744 3.6489999294281006,-2.1070001125335693 C4.813000202178955,-0.09200000017881393 4.122000217437744,2.484999895095825 2.1070001125335693,3.6489999294281006z"></path><path stroke="url(#__lottie_element_465)" stroke-linecap="butt" stroke-linejoin="miter" fill-opacity="0" stroke-miterlimit="10" stroke-opacity="1" stroke-width="4.544" d=" M2.1070001125335693,3.6489999294281006 C0.09200000017881393,4.813000202178955 -2.484999895095825,4.122000217437744 -3.6489999294281006,2.1070001125335693 C-4.813000202178955,0.09200000017881393 -4.122000217437744,-2.484999895095825 -2.1070001125335693,-3.6489999294281006 C-0.09200000017881393,-4.813000202178955 2.484999895095825,-4.122000217437744 3.6489999294281006,-2.1070001125335693 C4.813000202178955,-0.09200000017881393 4.122000217437744,2.484999895095825 2.1070001125335693,3.6489999294281006z"></path></g></g><g transform="matrix(1,0,0,1,343,259)" opacity="1" style="display: block;"><g opacity="1" transform="matrix(1,0,0,1,0,0)"><path fill="url(#__lottie_element_460)" fill-opacity="1" d=" M45.44200134277344,0 C45.44200134277344,25.097000122070312 25.097000122070312,45.44200134277344 0,45.44200134277344 C-25.097000122070312,45.44200134277344 -45.44200134277344,25.097000122070312 -45.44200134277344,0 C-45.44200134277344,-25.097000122070312 -25.097000122070312,-45.44200134277344 0,-45.44200134277344 C25.097000122070312,-45.44200134277344 45.44200134277344,-25.097000122070312 45.44200134277344,0z"></path></g></g><g transform="matrix(1,0,0,1,224.5,288)" opacity="1" style="display: block;"><g opacity="1" transform="matrix(1,0,0,1,0,0)"><path fill="url(#__lottie_element_456)" fill-opacity="1" d=" M4.073999881744385,-77.98200225830078 C4.073999881744385,-77.98200225830078 -33.90700149536133,-84.67900085449219 -33.90700149536133,-84.67900085449219 C-57.05699920654297,-51.0989990234375 -60.34700012207031,-5.85099983215332 -38.59700012207031,31.820999145507812 C-21.827999114990234,60.86600112915039 6.288000106811523,79.26200103759766 36.91699981689453,84.67900085449219 C36.91699981689453,84.67900085449219 47.96099853515625,22.04199981689453 47.96099853515625,22.04199981689453 C47.96099853515625,22.04199981689453 53.22200012207031,-7.791999816894531 53.22200012207031,-7.791999816894531 C53.22200012207031,-7.791999816894531 4.073999881744385,-77.98200225830078 4.073999881744385,-77.98200225830078z"></path></g></g><g transform="matrix(1,0,0,1,276,264.5)" opacity="1" style="display: block;"><g opacity="1" transform="matrix(1,0,0,1,0,0)"><path stroke="url(#__lottie_element_452)" stroke-linecap="butt" stroke-linejoin="miter" fill-opacity="0" stroke-miterlimit="10" stroke-opacity="1" stroke-width="4.544" d=" M-18.093000411987305,102.94100189208984 C-48.63100051879883,97.55500030517578 -75.0270004272461,79.08200073242188 -90.51499938964844,52.257999420166016 C-119.3290023803711,2.3489999771118164 -102.16600036621094,-61.69900131225586 -52.25699996948242,-90.51399993896484 C-31.01099967956543,-102.77999877929688 -6.0269999504089355,-107.19400024414062 18.0939998626709,-102.94100189208984 C48.630001068115234,-97.55699920654297 75.0250015258789,-79.08200073242188 90.51300048828125,-52.25699996948242 C119.3290023803711,-2.3489999771118164 102.16799926757812,61.696998596191406 52.257999420166016,90.51399993896484 C31.011999130249023,102.78099822998047 6.0279998779296875,107.19400024414062 -18.09000015258789,102.94100189208984 C-18.090999603271484,102.94100189208984 -18.091999053955078,102.94100189208984 -18.093000411987305,102.94100189208984z"></path></g></g><g transform="matrix(1,0,0,1,277,265)" opacity="1" style="display: block;"><g opacity="1" transform="matrix(1,0,0,1,0,0)"><path stroke="url(#__lottie_element_448)" stroke-linecap="butt" stroke-linejoin="miter" fill-opacity="0" stroke-miterlimit="10" stroke-opacity="1" stroke-width="4.544" d=" M94.4489974975586,-54.529998779296875 C64.33300018310547,-106.69300079345703 -2.367000102996826,-124.56500244140625 -54.529998779296875,-94.4489974975586 C-106.69300079345703,-64.33300018310547 -124.56500244140625,2.367000102996826 -94.4489974975586,54.529998779296875 C-64.33300018310547,106.69300079345703 2.367000102996826,124.56500244140625 54.529998779296875,94.4489974975586 C106.69300079345703,64.33300018310547 124.56500244140625,-2.367000102996826 94.4489974975586,-54.529998779296875z"></path></g></g><g transform="matrix(1,0,0,1,277,265)" opacity="1" style="display: block;"><g opacity="1" transform="matrix(1,0,0,1,0,0)"><path stroke="url(#__lottie_element_444)" stroke-linecap="round" stroke-linejoin="round" fill-opacity="0" stroke-opacity="1" stroke-width="4.544" d=" M98.38400268554688,-56.801998138427734 C129.7550048828125,-2.4660000801086426 111.13800048828125,67.01300048828125 56.801998138427734,98.38400268554688 C2.4660000801086426,129.7550048828125 -67.01300048828125,111.13800048828125 -98.38400268554688,56.801998138427734 C-129.7550048828125,2.4660000801086426 -111.13800048828125,-67.01300048828125 -56.801998138427734,-98.38400268554688 C-2.4660000801086426,-129.7550048828125 67.01300048828125,-111.13800048828125 98.38400268554688,-56.801998138427734z"></path></g></g></g><g mask="url(#__lottie_element_436)" style="display: block;"><g clip-path="url(#__lottie_element_497)" transform="matrix(1,0,0,1,0,0)" opacity="1"><g transform="matrix(1,0,0,1,265,285.5)" opacity="1" style="display: block;"><g opacity="1" transform="matrix(1,0,0,1,0,0)"><path fill="url(#__lottie_element_521)" fill-opacity="1" d=" M-82.6240005493164,34.858001708984375 C-52.507999420166016,87.02100372314453 14.192000389099121,104.89299774169922 66.3550033569336,74.7770004272461 C78.61299896240234,67.69999694824219 88.9489974975586,58.584999084472656 97.24199676513672,48.13100051879883 C94.0719985961914,42.72999954223633 92.11299896240234,36.64099884033203 91.60199737548828,30.275999069213867 C89.88600158691406,8.937999725341797 81.4530029296875,-29.156999588012695 45.551998138427734,-59.28200149536133 C10.32699966430664,-88.83899688720703 -36.08000183105469,-96.31099700927734 -76.83699798583984,-83.16999816894531 C-100.95999908447266,-49.44300079345703 -104.70800018310547,-3.3929998874664307 -82.6240005493164,34.858001708984375z"></path></g></g><g transform="matrix(1,0,0,1,269.0530090332031,270.7760009765625)" opacity="1" style="display: block;"><g opacity="1" transform="matrix(1,0,0,1,0,0)"><path fill="url(#__lottie_element_517)" fill-opacity="1" d=" M7.684999942779541,106.45099639892578 C-1.9859999418258667,106.45099639892578 -11.718999862670898,105.17900085449219 -21.31100082397461,102.60900115966797 C-50.0359992980957,94.91300201416016 -74.04399871826172,76.48999786376953 -88.91300201416016,50.736000061035156 C-110.69300079345703,13.01099967956543 -108.3740005493164,-34.28200149536133 -83.00599670410156,-69.75 C-83.00599670410156,-69.75 -82.56900024414062,-70.36000061035156 -82.56900024414062,-70.36000061035156 C-82.56900024414062,-70.36000061035156 -81.8550033569336,-70.58999633789062 -81.8550033569336,-70.58999633789062 C-38.62099838256836,-84.52899932861328 7.938000202178955,-75.44200134277344 42.691001892089844,-46.28099822998047 C79.57099914550781,-15.335000038146973 87.87699890136719,24.09000015258789 89.54499816894531,44.83599853515625 C90.02100372314453,50.74599838256836 91.86499786376953,56.58599853515625 94.88099670410156,61.7239990234375 C94.88099670410156,61.7239990234375 95.66799926757812,63.066001892089844 95.66799926757812,63.066001892089844 C95.66799926757812,63.066001892089844 94.70099639892578,64.28600311279297 94.70099639892578,64.28600311279297 C85.96199798583984,75.302001953125 75.35399627685547,84.4530029296875 63.16999816894531,91.48699951171875 C46.01599884033203,101.39099884033203 26.97599983215332,106.45099639892578 7.684999942779541,106.45099639892578z M-84.97699737548828,48.46500015258789 C-55.5359992980957,99.45800018310547 9.902000427246094,116.99299621582031 60.89799880981445,87.552001953125 C72.14299774169922,81.05899810791016 81.99199676513672,72.68399810791016 90.18699645996094,62.64699935913086 C87.28600311279297,57.26499938964844 85.50299835205078,51.26599884033203 85.01599884033203,45.19900131225586 C83.40499877929688,25.160999298095703 75.38400268554688,-12.916000366210938 39.770999908447266,-42.79899978637695 C6.414999961853027,-70.78800201416016 -38.2130012512207,-79.61799621582031 -79.74400329589844,-66.49400329589844 C-103.66899871826172,-32.54100036621094 -105.74299621582031,12.496000289916992 -84.97699737548828,48.46500015258789z"></path></g></g><g transform="matrix(1,0,0,1,-0.4770050048828125,0.927001953125)" opacity="1" style="display: block;"><g opacity="1" transform="matrix(1,0,0,1,299.49200439453125,263.78399658203125)"><path fill="url(#__lottie_element_507)" fill-opacity="1" d=" M-0.9179999828338623,-23.239999771118164 C-5.659999847412109,-27.219999313354492 -10.645999908447266,-30.711999893188477 -15.8100004196167,-33.750999450683594 C-15.8100004196167,-33.750999450683594 -24.618999481201172,16.202999114990234 -24.618999481201172,16.202999114990234 C-24.618999481201172,16.202999114990234 -12.331999778747559,33.750999450683594 -12.331999778747559,33.750999450683594 C-12.331999778747559,33.750999450683594 24.618999481201172,7.877999782562256 24.618999481201172,7.877999782562256 C18.29599952697754,-3.6700000762939453 9.776000022888184,-14.267000198364258 -0.9179999828338623,-23.239999771118164z"></path></g><g opacity="1" transform="matrix(1,0,0,1,278.3869934082031,294.9049987792969)"><path fill="url(#__lottie_element_508)" fill-opacity="1" d=" M-8.77400016784668,14.916999816894531 C-8.77400016784668,14.916999816894531 8.77400016784668,2.630000114440918 8.77400016784668,2.630000114440918 C8.77400016784668,2.630000114440918 -3.513000011444092,-14.916999816894531 -3.513000011444092,-14.916999816894531 C-3.513000011444092,-14.916999816894531 -8.77400016784668,14.916999816894531 -8.77400016784668,14.916999816894531z"></path></g><g opacity="1" transform="matrix(1,0,0,1,256.5379943847656,247.51199340820312)"><path fill="url(#__lottie_element_509)" fill-opacity="1" d=" M-27.143999099731445,-32.47600173950195 C-27.143999099731445,-32.47600173950195 18.336000442504883,32.47600173950195 18.336000442504883,32.47600173950195 C18.336000442504883,32.47600173950195 27.143999099731445,-17.479000091552734 27.143999099731445,-17.479000091552734 C10.319000244140625,-27.381000518798828 -8.434000015258789,-32.33000183105469 -27.143999099731445,-32.47600173950195z"></path></g><g opacity="1" transform="matrix(1,0,0,1,312.3340148925781,315.8789978027344)"><path fill="url(#__lottie_element_510)" fill-opacity="1" d=" M11.777000427246094,-44.21699905395508 C11.777000427246094,-44.21699905395508 -25.17300033569336,-18.3439998626709 -25.17300033569336,-18.3439998626709 C-25.17300033569336,-18.3439998626709 18.632999420166016,44.21699905395508 18.632999420166016,44.21699905395508 C18.81100082397461,44.117000579833984 18.990999221801758,44.029998779296875 19.167999267578125,43.92900085449219 C19.174999237060547,43.92499923706055 19.183000564575195,43.92100143432617 19.190000534057617,43.91699981689453 C29.246999740600586,14.871000289916992 26.527000427246094,-17.277999877929688 11.777000427246094,-44.21699905395508z"></path></g><g opacity="1" transform="matrix(1,0,0,1,294.76800537109375,335.8240051269531)"><path fill="url(#__lottie_element_511)" fill-opacity="1" d=" M-7.60699987411499,-38.28900146484375 C-7.60699987411499,-38.28900146484375 -25.155000686645508,-26.00200080871582 -25.155000686645508,-26.00200080871582 C-25.155000686645508,-26.00200080871582 -36.19900131225586,36.632999420166016 -36.19900131225586,36.632999420166016 C-36.18199920654297,36.63600158691406 -36.16400146484375,36.63999938964844 -36.145999908447266,36.643001556396484 C-35.11899948120117,36.82400131225586 -34.08700180053711,36.97200012207031 -33.05400085449219,37.124000549316406 C-32.47100067138672,37.209999084472656 -31.88800048828125,37.30400085449219 -31.30299949645996,37.380001068115234 C-30.33799934387207,37.50600051879883 -29.371000289916992,37.60599899291992 -28.402999877929688,37.707000732421875 C-27.7450008392334,37.775001525878906 -27.086999893188477,37.84400177001953 -26.427000045776367,37.900001525878906 C-25.486000061035156,37.97999954223633 -24.542999267578125,38.042999267578125 -23.600000381469727,38.0989990234375 C-22.910999298095703,38.13999938964844 -22.22100067138672,38.17499923706055 -21.5310001373291,38.20199966430664 C-20.599000930786133,38.23899841308594 -19.666000366210938,38.26900100708008 -18.732999801635742,38.28200149536133 C-18.031999588012695,38.29199981689453 -17.329999923706055,38.28900146484375 -16.628000259399414,38.28499984741211 C-15.696000099182129,38.279998779296875 -14.762999534606934,38.27399826049805 -13.829999923706055,38.24599838256836 C-13.135000228881836,38.224998474121094 -12.440999984741211,38.183998107910156 -11.746000289916992,38.14899826049805 C-10.800999641418457,38.10200119018555 -9.857000350952148,38.06100082397461 -8.911999702453613,37.98899841308594 C-8.298999786376953,37.94200134277344 -7.685999870300293,37.869998931884766 -7.072999954223633,37.8129997253418 C-5.110000133514404,37.630001068115234 -3.1480000019073486,37.39400100708008 -1.1890000104904175,37.10200119018555 C-0.6119999885559082,37.01599884033203 -0.03400000184774399,36.94499969482422 0.5429999828338623,36.849998474121094 C1.4839999675750732,36.694000244140625 2.421999931335449,36.505001068115234 3.3610000610351562,36.32400131225586 C4.053999900817871,36.189998626708984 4.748000144958496,36.064998626708984 5.440000057220459,35.91699981689453 C6.361000061035156,35.72100067138672 7.28000020980835,35.499000549316406 8.197999954223633,35.27799987792969 C8.901000022888184,35.10900115966797 9.604000091552734,34.939998626708984 10.305000305175781,34.75600051879883 C11.220999717712402,34.51599884033203 12.133999824523926,34.25899887084961 13.04699993133545,33.99399948120117 C13.741999626159668,33.79199981689453 14.434000015258789,33.58399963378906 15.126999855041504,33.36800003051758 C16.042999267578125,33.082000732421875 16.957000732421875,32.7869987487793 17.868000030517578,32.47600173950195 C18.545000076293945,32.244998931884766 19.218000411987305,32 19.892000198364258,31.7549991607666 C20.81399917602539,31.41900062561035 21.736000061035156,31.082000732421875 22.652999877929688,30.719999313354492 C23.288999557495117,30.4689998626709 23.91900062561035,30.197999954223633 24.552000045776367,29.93400001525879 C25.5,29.538999557495117 26.448999404907227,29.150999069213867 27.388999938964844,28.726999282836914 C27.87299919128418,28.509000778198242 28.35099983215332,28.267000198364258 28.83300018310547,28.04199981689453 C30.948999404907227,27.052000045776367 33.04800033569336,25.989999771118164 35.124000549316406,24.85099983215332 C35.481998443603516,24.655000686645508 35.84299850463867,24.472999572753906 36.19900131225586,24.273000717163086 C36.19900131225586,24.273000717163086 -7.60699987411499,-38.28900146484375 -7.60699987411499,-38.28900146484375z"></path></g><g opacity="1" transform="matrix(1,0,0,1,0,0)"><g opacity="1" transform="matrix(1,0,0,1,240.08599853515625,341.1390075683594)"><path fill="url(#__lottie_element_512)" fill-opacity="1" d=" M-28.990999221801758,10.458999633789062 C-27.538000106811523,11.571999549865723 -26.062999725341797,12.651000022888184 -24.562000274658203,13.6850004196167 C-24.527999877929688,13.708000183105469 -24.4950008392334,13.734000205993652 -24.461000442504883,13.758000373840332 C-21.281999588012695,15.942999839782715 -17.996000289916992,17.94700050354004 -14.625,19.77199935913086 C-14.342000007629395,19.924999237060547 -14.053000450134277,20.065000534057617 -13.769000053405762,20.215999603271484 C-12.392000198364258,20.945999145507812 -11.003999710083008,21.652000427246094 -9.600000381469727,22.320999145507812 C-9.199999809265137,22.511999130249023 -8.795000076293945,22.690000534057617 -8.392000198364258,22.875999450683594 C-7.083000183105469,23.481000900268555 -5.763999938964844,24.06399917602539 -4.433000087738037,24.615999221801758 C-3.989000082015991,24.799999237060547 -3.5420000553131104,24.97800064086914 -3.0950000286102295,25.1560001373291 C-1.781999945640564,25.68000030517578 -0.45899999141693115,26.18000030517578 0.8730000257492065,26.652999877929688 C1.3250000476837158,26.812999725341797 1.7769999504089355,26.97100067138672 2.2309999465942383,27.125999450683594 C3.5929999351501465,27.59000015258789 4.964000225067139,28.02400016784668 6.3429999351501465,28.433000564575195 C6.763999938964844,28.558000564575195 7.184999942779541,28.687999725341797 7.607999801635742,28.808000564575195 C9.07800006866455,29.22599983215332 10.559000015258789,29.60700035095215 12.045999526977539,29.96299934387207 C12.378000259399414,30.042999267578125 12.708000183105469,30.131000518798828 13.041000366210938,30.207000732421875 C14.769000053405762,30.604000091552734 16.5049991607666,30.958999633789062 18.250999450683594,31.27199935913086 C18.32900047302246,31.285999298095703 18.40399932861328,31.30299949645996 18.48200035095215,31.316999435424805 C18.48200035095215,31.316999435424805 29.525999069213867,-31.316999435424805 29.525999069213867,-31.316999435424805 C29.525999069213867,-31.316999435424805 -29.525999069213867,10.031999588012695 -29.525999069213867,10.031999588012695 C-29.347999572753906,10.175000190734863 -29.172000885009766,10.321000099182129 -28.990999221801758,10.458999633789062z"></path></g><g opacity="1" transform="matrix(1,0,0,1,221.66000366210938,283.10198974609375)"><path fill="url(#__lottie_element_513)" fill-opacity="1" d=" M7.734000205993652,-68.06600189208984 C-11.305000305175781,-68.21399688720703 -30.295000076293945,-63.4010009765625 -47.14899826049805,-53.810001373291016 C-51.52399826049805,-41.198001861572266 -53.59000015258789,-27.820999145507812 -53.15700149536133,-14.37399959564209 C-53.154998779296875,-14.317999839782715 -53.152000427246094,-14.262999534606934 -53.1510009765625,-14.208000183105469 C-53.025001525878906,-10.472000122070312 -52.702999114990234,-6.730999946594238 -52.1870002746582,-2.999000072479248 C-52.1609992980957,-2.812999963760376 -52.132999420166016,-2.625999927520752 -52.10599899291992,-2.440000057220459 C-51.5890007019043,1.1629999876022339 -50.8849983215332,4.755000114440918 -49.99599838256836,8.324000358581543 C-49.92300033569336,8.619000434875488 -49.84600067138672,8.913000106811523 -49.77000045776367,9.206999778747559 C-49.327999114990234,10.920999526977539 -48.85200119018555,12.630999565124512 -48.321998596191406,14.333000183105469 C-48.3120002746582,14.36400032043457 -48.30500030517578,14.394000053405762 -48.29499816894531,14.425000190734863 C-47.762001037597656,16.132999420166016 -47.17100143432617,17.829999923706055 -46.54899978637695,19.52199935913086 C-46.415000915527344,19.886999130249023 -46.2760009765625,20.253000259399414 -46.137001037597656,20.617000579833984 C-45.51900100708008,22.243999481201172 -44.87099838256836,23.864999771118164 -44.16899871826172,25.474000930786133 C-44.14500045776367,25.52899932861328 -44.124000549316406,25.58300018310547 -44.099998474121094,25.63800048828125 C-43.382999420166016,27.274999618530273 -42.608001708984375,28.89699935913086 -41.803001403808594,30.511999130249023 C-41.606998443603516,30.9060001373291 -41.40700149536133,31.298999786376953 -41.20600128173828,31.691999435424805 C-40.38100051879883,33.29899978637695 -39.52799987792969,34.89899826049805 -38.6150016784668,36.48099899291992 C-38.61199951171875,36.48699951171875 -38.608001708984375,36.492000579833984 -38.60499954223633,36.49800109863281 C-37.606998443603516,38.22600173950195 -36.56399917602539,39.9119987487793 -35.48699951171875,41.56399917602539 C-35.14099884033203,42.095001220703125 -34.77299880981445,42.604000091552734 -34.41899871826172,43.12799835205078 C-33.66999816894531,44.23400115966797 -32.917999267578125,45.33700180053711 -32.1349983215332,46.40800094604492 C-31.697999954223633,47.005001068115234 -31.243999481201172,47.58399963378906 -30.797000885009766,48.16999816894531 C-30.059999465942383,49.13600158691406 -29.31800079345703,50.09700012207031 -28.554000854492188,51.03300094604492 C-28.06999969482422,51.625 -27.573999404907227,52.20500183105469 -27.079999923706055,52.78499984741211 C-26.312999725341797,53.683998107910156 -25.538000106811523,54.573001861572266 -24.746999740600586,55.44300079345703 C-24.23900032043457,56.00199890136719 -23.724000930786133,56.551998138427734 -23.20599937438965,57.097999572753906 C-22.385000228881836,57.9630012512207 -21.549999237060547,58.81100082397461 -20.704999923706055,59.64500045776367 C-20.191999435424805,60.150001525878906 -19.68000030517578,60.654998779296875 -19.158000946044922,61.14899826049805 C-18.253999710083008,62.00600051879883 -17.33300018310547,62.8390007019043 -16.402999877929688,63.6609992980957 C-15.916999816894531,64.09100341796875 -15.435999870300293,64.5260009765625 -14.944000244140625,64.94599914550781 C-13.892999649047852,65.84200286865234 -12.821000099182129,66.70700073242188 -11.739999771118164,67.55999755859375 C-11.526000022888184,67.72899627685547 -11.312000274658203,67.89800262451172 -11.100000381469727,68.06900024414062 C-11.100000381469727,68.06900024414062 47.952999114990234,26.719999313354492 47.952999114990234,26.719999313354492 C47.952999114990234,26.719999313354492 53.2130012512207,-3.115000009536743 53.2130012512207,-3.115000009536743 C53.2130012512207,-3.115000009536743 7.734000205993652,-68.06600189208984 7.734000205993652,-68.06600189208984z"></path></g></g></g><g transform="matrix(1,0,0,1,252.5,295.5)" opacity="1" style="display: block;"><g opacity="1" transform="matrix(1,0,0,1,0,0)"><path fill="url(#__lottie_element_503)" fill-opacity="1" d=" M24.663000106811523,81.79900360107422 C14.906000137329102,81.79900360107422 5.089000225067139,80.50599670410156 -4.578999996185303,77.89099884033203 C-33.18299865722656,70.15399932861328 -57.09600067138672,51.75899887084961 -71.91200256347656,26.09600067138672 C-88.07099914550781,-1.8910000324249268 -91.2509994506836,-35.492000579833984 -80.63600158691406,-66.09200286865234 C-80.63600158691406,-66.09200286865234 -80.35600280761719,-66.9000015258789 -80.35600280761719,-66.9000015258789 C-80.35600280761719,-66.9000015258789 -79.61299896240234,-67.3219985961914 -79.61299896240234,-67.3219985961914 C-39.35200119018555,-90.23300170898438 11.543000221252441,-85.61799621582031 47.03499984741211,-55.83700180053711 C64.6500015258789,-41.055999755859375 77.08599853515625,-21.541000366210938 82.99800109863281,0.5989999771118164 C88.7760009765625,22.235000610351562 87.97100067138672,44.816001892089844 80.6709976196289,65.9000015258789 C80.6709976196289,65.9000015258789 80.39099884033203,66.70700073242188 80.39099884033203,66.70700073242188 C80.39099884033203,66.70700073242188 79.6500015258789,67.12999725341797 79.6500015258789,67.12999725341797 C62.624000549316406,76.84100341796875 43.762001037597656,81.79900360107422 24.663000106811523,81.79900360107422z M-76.62000274658203,-63.792999267578125 C-86.46700286865234,-34.659000396728516 -83.33300018310547,-2.7720000743865967 -67.97699737548828,23.825000762939453 C-67.97699737548828,23.825000762939453 -67.97699737548828,23.825000762939453 -67.97699737548828,23.825000762939453 C-38.83599853515625,74.30000305175781 25.88599967956543,92.02899932861328 76.65299987792969,63.604000091552734 C83.39900207519531,43.61199951171875 84.0780029296875,22.250999450683594 78.60800170898438,1.7710000276565552 C72.93800354003906,-19.459999084472656 61.00899887084961,-38.176998138427734 44.112998962402344,-52.35499954223633 C10.288000106811523,-80.73699951171875 -38.119998931884766,-85.29199981689453 -76.62000274658203,-63.792999267578125z"></path></g></g></g></g></g></svg>